<svg xmlns="http://www.w3.org/2000/svg" xmlns:xlink="http://www.w3.org/1999/xlink" viewBox="0,0,256,256" width="50px" height="50px" fill-rule="nonzero"><g fill="#ffffff" fill-rule="nonzero" stroke="none" stroke-width="1" stroke-linecap="butt" stroke-linejoin="miter" stroke-miterlimit="10" stroke-dasharray="" stroke-dashoffset="0" font-family="none" font-weight="none" font-size="none" text-anchor="none" style="mix-blend-mode: normal"><g transform="scale(5.12,5.12)"><path d="M25,2c-0.71484,0 -1.42969,0.17969 -2.06641,0.53906l-16.84375,9.46484c-1.28906,0.72266 -2.08984,2.07813 -2.08984,3.53125v18.92969c0,1.45313 0.80078,2.80859 2.08984,3.53125l16.84375,9.46484c0.63672,0.35938 1.35156,0.53906 2.06641,0.53906c0.71484,0 1.42969,-0.17969 2.06641,-0.53906l16.84375,-9.46094c1.28906,-0.72656 2.08984,-2.08203 2.08984,-3.53516v-18.92969c0,-1.45312 -0.80078,-2.80859 -2.08984,-3.53125l-16.84375,-9.46484c-0.63672,-0.35937 -1.35156,-0.53906 -2.06641,-0.53906zM25,13c3.78125,0 7.27734,1.75391 9.54297,4.73828l-4.38281,2.53906c-1.31641,-1.44141 -3.1875,-2.27734 -5.16016,-2.27734c-3.85937,0 -7,3.14063 -7,7c0,3.85938 3.14063,7 7,7c1.97266,0 3.84375,-0.83594 5.16016,-2.27734l4.38281,2.53906c-2.26562,2.98438 -5.76172,4.73828 -9.54297,4.73828c-6.61719,0 -12,-5.38281 -12,-12c0,-6.61719 5.38281,-12 12,-12zM35,20h2v2h2v-2h2v2h2v2h-2v2h2v2h-2v2h-2v-2h-2v2h-2v-2h-2v-2h2v-2h-2v-2h2zM37,24v2h2v-2z"></path></g></g></svg>