<svg xmlns="http://www.w3.org/2000/svg" xmlns:xlink="http://www.w3.org/1999/xlink" viewBox="0,0,256,256" width="50px" height="50px" fill-rule="nonzero"><g fill="#ffffff" fill-rule="nonzero" stroke="none" stroke-width="1" stroke-linecap="butt" stroke-linejoin="miter" stroke-miterlimit="10" stroke-dasharray="" stroke-dashoffset="0" font-family="none" font-weight="none" font-size="none" text-anchor="none" style="mix-blend-mode: normal"><g transform="scale(5.12,5.12)"><path d="M28.1875,-0.00391c2.75,6.36328 -9.86719,10.29297 -11.03516,15.59766c-1.07812,4.86719 7.48828,10.52734 7.49219,10.52734c-1.30078,-2.01562 -2.24219,-3.67969 -3.54687,-6.81641c-2.20703,-5.30469 13.43359,-10.10156 7.08984,-19.30859zM36.55078,8.8125c0,0 -11.04687,0.69922 -11.60937,7.76953c-0.25,3.14844 2.90234,4.82813 2.99609,7.12109c0.07031,1.86719 -1.88672,3.42578 -1.88672,3.42578c0,0 3.55078,-0.66797 4.66406,-3.52344c1.23047,-3.16797 -2.38672,-5.33203 -2.02344,-7.86719c0.35156,-2.42578 7.85938,-6.92578 7.85938,-6.92578zM39.23047,25.14453c-1.15625,-0.05078 -2.44141,0.33203 -3.60547,1.16797c2.28125,-0.48828 4.21094,0.90625 4.21094,2.51563c0,3.625 -5.23828,7.05078 -5.23828,7.05078c0,0 8.10938,-0.92578 8.10938,-6.87891c0,-2.46094 -1.55469,-3.76562 -3.47656,-3.85547zM19.18359,25.15234c0,0 -10.12109,-0.13672 -10.12109,2.72656c0,2.99219 13.25391,3.20313 22.71875,1.35938c0,0 2.52734,-1.73047 3.19922,-2.375c-6.20312,1.26563 -20.35937,1.43359 -20.35937,0.33984c0,-1.01172 4.5625,-2.05078 4.5625,-2.05078zM16.73828,30.72266c-1.55078,0 -3.86719,1.19922 -3.86719,2.35547c0,2.32422 11.69141,4.11719 20.34766,0.71875l-2.99609,-1.83594c-5.86719,1.87891 -16.68359,1.27734 -13.48437,-1.23828zM18.17969,35.92188c-2.12891,0 -3.50781,1.3125 -3.50781,2.28125c0,2.98438 12.70703,3.28516 17.74219,0.25l-3.19922,-2.03516c-3.76172,1.58984 -13.20703,1.80469 -11.03516,-0.49609zM11.08984,38.625c-3.46875,-0.07031 -5.72266,1.48828 -5.72266,2.78125c-0.00391,6.875 35.52344,6.54297 35.52344,-0.48437c0,-1.16406 -1.375,-1.71875 -1.87109,-1.98437c2.90234,6.71875 -29.05078,6.19922 -29.05078,2.23438c0,-0.90234 2.34375,-1.78906 4.52344,-1.36328l-1.84766,-1.05078c-0.54297,-0.08203 -1.0625,-0.125 -1.55469,-0.13281zM44.63672,43.25c-5.40234,5.11719 -19.08984,6.98438 -32.85547,3.82422c13.76172,5.62891 32.78516,2.46094 32.85547,-3.82422z"></path></g></g></svg>