<svg xmlns="http://www.w3.org/2000/svg" xmlns:xlink="http://www.w3.org/1999/xlink" viewBox="0,0,256,256" width="50px" height="50px" fill-rule="nonzero"><g fill="#ffffff" fill-rule="nonzero" stroke="none" stroke-width="1" stroke-linecap="butt" stroke-linejoin="miter" stroke-miterlimit="10" stroke-dasharray="" stroke-dashoffset="0" font-family="none" font-weight="none" font-size="none" text-anchor="none" style="mix-blend-mode: normal"><g transform="scale(5.12,5.12)"><path d="M43.33594,4h-36.66797c-1.47266,0 -2.66797,1.19531 -2.66797,2.66797v36.66406c0,1.47266 1.19531,2.66797 2.66797,2.66797h36.66406c1.47266,0 2.66797,-1.19531 2.66797,-2.66406v-36.66797c0,-1.47266 -1.19531,-2.66797 -2.66406,-2.66797zM27,36.18359c0,3.99609 -2.34375,5.81641 -5.76562,5.81641c-3.09375,0 -5.32422,-2.07422 -6.23437,-4l3.14453,-1.90234c0.60547,1.07422 1.52734,1.90234 2.85547,1.90234c1.26953,0 2,-0.49609 2,-2.42578v-12.57422h4zM35.67578,42c-3.54297,0 -5.55469,-1.78516 -6.67578,-4l3,-2c0.81641,1.33594 1.70703,2.61328 3.58984,2.61328c1.58203,0 2.41016,-0.78906 2.41016,-1.88281c0,-1.30469 -0.85937,-1.76953 -2.59766,-2.53125l-0.95312,-0.41016c-2.75391,-1.17187 -4.58594,-2.64062 -4.58594,-5.75c0,-2.85937 2.18359,-5.03906 5.58984,-5.03906c2.42578,0 4.16797,0.84375 5.42578,3.05469l-2.96875,1.91016c-0.65625,-1.17578 -1.35937,-1.63672 -2.45703,-1.63672c-1.11719,0 -1.82422,0.71094 -1.82422,1.63672c0,1.14453 0.70703,1.60547 2.34375,2.31641l0.95313,0.41016c3.24609,1.38672 5.07422,2.80469 5.07422,5.99219c0,3.43359 -2.69922,5.31641 -6.32422,5.31641z"></path></g></g></svg>