<svg xmlns="http://www.w3.org/2000/svg" xmlns:xlink="http://www.w3.org/1999/xlink" viewBox="0,0,256,256" width="50px" height="50px" fill-rule="nonzero"><g fill="#ffffff" fill-rule="nonzero" stroke="none" stroke-width="1" stroke-linecap="butt" stroke-linejoin="miter" stroke-miterlimit="10" stroke-dasharray="" stroke-dashoffset="0" font-family="none" font-weight="none" font-size="none" text-anchor="none" style="mix-blend-mode: normal"><g transform="scale(5.12,5.12)"><path d="M24.5,2c-8.69922,0 -10.5,4.49219 -10.5,7.09375v4.90625h10v1h-14.90625c-3.30078,0 -7.09375,2.60156 -7.09375,10c0,7.39844 3.79297,10 7.09375,10h5.90625v-6c0,-2.19922 1.80078,-4 4,-4h12c1.69922,0 3,-1.30078 3,-3v-12.90625c0,-3.5 -3.30078,-7.09375 -9.5,-7.09375zM20,7c1.10156,0 2,0.89844 2,2c0,1.10156 -0.89844,2 -2,2c-1.10156,0 -2,-0.89844 -2,-2c0,-1.10156 0.89844,-2 2,-2zM35,15v7c0,2.19922 -1.80078,4 -4,4h-12c-1.69922,0 -3,1.30078 -3,3v11.90625c0,3.5 3.30078,7.09375 9.5,7.09375c8.69922,0 10.5,-4.49219 10.5,-7.09375v-4.90625h-10v-1h14.90625c3.30078,0 7.09375,-2.60156 7.09375,-10c0,-7.39844 -3.79297,-10 -7.09375,-10zM30,39c1.10156,0 2,0.89844 2,2c0,1.10156 -0.89844,2 -2,2c-1.10156,0 -2,-0.89844 -2,-2c0,-1.10156 0.89844,-2 2,-2z"></path></g></g></svg>