<svg xmlns="http://www.w3.org/2000/svg" xmlns:xlink="http://www.w3.org/1999/xlink" viewBox="0,0,256,256" width="50px" height="50px" fill-rule="nonzero"><g fill="#ffffff" fill-rule="nonzero" stroke="none" stroke-width="1" stroke-linecap="butt" stroke-linejoin="miter" stroke-miterlimit="10" stroke-dasharray="" stroke-dashoffset="0" font-family="none" font-weight="none" font-size="none" text-anchor="none" style="mix-blend-mode: normal"><g transform="scale(5.12,5.12)"><path d="M35.5,3h-21c-6.341,0 -11.5,5.159 -11.5,11.5v21c0,6.341 5.159,11.5 11.5,11.5h21c6.341,0 11.5,-5.159 11.5,-11.5v-21c0,-6.341 -5.159,-11.5 -11.5,-11.5zM39.615,39c0,0 -1.65,-2.807 -4.416,-2.807c-2.666,0 -4.707,2.807 -10.074,2.807c-9.975,-0.001 -15.629,-7.398 -17.093,-9.7c-0.115,-0.181 0.1,-0.381 0.281,-0.266c4.242,2.667 8.345,3.966 11.187,3.965c4.157,-0.001 6.5,-1.999 6.5,-1.999c-3.829,-2.255 -13,-12.75 -14.954,-15.681c-0.135,-0.202 0.107,-0.425 0.293,-0.269c7.947,6.684 12.476,9.203 12.476,9.203c-1.682,-1.412 -6.69,-8.004 -8.773,-10.935c-0.141,-0.198 0.118,-0.427 0.296,-0.262c5.7,5.3 15.662,12.944 15.662,12.944c0.627,-1.764 1.024,-3.881 0.998,-5.5c-0.067,-4.269 -2.82,-8.526 -3.961,-10.191c-0.129,-0.188 0.106,-0.399 0.291,-0.266c7.422,5.332 9.673,11.99 9.672,15.832c-0.001,2.76 -1,4.5 -1,4.5c0,0 4.232,4.617 2.615,8.625z"></path></g></g></svg>